<svg width="24" height="27" viewBox="0 0 24 27" fill="none" xmlns="http://www.w3.org/2000/svg">
<path d="M2.66667 27C1.93333 27 1.30556 26.7356 0.783333 26.2069C0.261111 25.6781 0 25.0425 0 24.3V5.4C0 4.6575 0.261111 4.02188 0.783333 3.49313C1.30556 2.96438 1.93333 2.7 2.66667 2.7H8.26667C8.55556 1.89 9.03889 1.2375 9.71667 0.7425C10.3944 0.2475 11.1556 0 12 0C12.8444 0 13.6056 0.2475 14.2833 0.7425C14.9611 1.2375 15.4444 1.89 15.7333 2.7H21.3333C22.0667 2.7 22.6944 2.96438 23.2167 3.49313C23.7389 4.02188 24 4.6575 24 5.4V24.3C24 25.0425 23.7389 25.6781 23.2167 26.2069C22.6944 26.7356 22.0667 27 21.3333 27H2.66667ZM2.66667 24.3H21.3333V5.4H2.66667V24.3ZM5.33333 21.6H14.6667V18.9H5.33333V21.6ZM5.33333 16.2H18.6667V13.5H5.33333V16.2ZM5.33333 10.8H18.6667V8.1H5.33333V10.8ZM12 4.3875C12.2889 4.3875 12.5278 4.29187 12.7167 4.10062C12.9056 3.90937 13 3.6675 13 3.375C13 3.0825 12.9056 2.84063 12.7167 2.64938C12.5278 2.45813 12.2889 2.3625 12 2.3625C11.7111 2.3625 11.4722 2.45813 11.2833 2.64938C11.0944 2.84063 11 3.0825 11 3.375C11 3.6675 11.0944 3.90937 11.2833 4.10062C11.4722 4.29187 11.7111 4.3875 12 4.3875Z" fill="#2563EB"/>
</svg>
